<svg width="50" height="50" viewBox="0 0 50 50" fill="none" xmlns="http://www.w3.org/2000/svg">
<path d="M42.439 33.4951C43.742 33.4951 44.979 33.7721 46.0976 34.2665V16.7476V3.15534C46.0976 1.41262 44.6781 0 42.9268 0H3.17073C1.41951 0 0 1.41262 0 3.15534V41.4481V42.7184C0 44.4612 1.41951 45.8738 3.17073 45.8738H34.0851C33.6539 44.8252 33.4146 43.6786 33.4146 42.4757C33.4146 37.5158 37.4549 33.4951 42.439 33.4951ZM22.9268 34.2233H10.9756L2.19512 38.032V5.40049V2.18447H5.42683H40.6707H43.9024V5.40049V15.8981L40.9756 16.9903L37.561 24.7573L29.7561 28.3981L22.9268 34.2233Z" fill="#B8B8B8"/>
<path d="M43.9021 5.40048V2.18446H40.6704C42.4553 2.18446 43.9021 3.62427 43.9021 5.40048Z" fill="#B8B8B8"/>
<path d="M5.42702 2.18446H2.19531V5.40048C2.19531 3.62427 3.64214 2.18446 5.42702 2.18446Z" fill="#B8B8B8"/>
<path d="M11.7071 16.9903C14.1318 16.9903 16.0974 15.0343 16.0974 12.6214C16.0974 10.2085 14.1318 8.25243 11.7071 8.25243C9.28247 8.25243 7.31689 10.2085 7.31689 12.6214C7.31689 15.0343 9.28247 16.9903 11.7071 16.9903Z" fill="#B8B8B8"/>
<path d="M50.0004 41.2621H43.6589V34.9514H41.2199V41.2621H34.8784V43.6893H41.2199V50H43.6589V43.6893H50.0004V41.2621Z" fill="#B8B8B8"/>
</svg>
