<svg width="20" height="23" viewBox="0 0 20 23" fill="none" xmlns="http://www.w3.org/2000/svg">
<path d="M1.30786 21.2008C1.30786 22.1945 2.1134 23 3.10705 23H16.6829C17.6765 23 18.4821 22.1945 18.4821 21.2008V3.86304H1.30786V21.2008ZM12.9962 6.91595C12.9962 6.28358 13.5088 5.77094 14.1412 5.77094H15.0281C15.6605 5.77094 16.1731 6.28358 16.1731 6.91595V19.9472C16.1731 20.5796 15.6605 21.0922 15.0281 21.0922H14.1412C13.5088 21.0922 12.9962 20.5796 12.9962 19.9472V6.91595ZM8.30646 6.91595C8.30646 6.28358 8.8191 5.77094 9.45147 5.77094H10.3384C10.9707 5.77094 11.4834 6.28358 11.4834 6.91595V19.9472C11.4834 20.5796 10.9707 21.0922 10.3384 21.0922H9.45147C8.8191 21.0922 8.30646 20.5796 8.30646 19.9472V6.91595ZM3.61685 6.91595C3.61685 6.28358 4.12948 5.77094 4.76185 5.77094H5.64874C6.28111 5.77094 6.79375 6.28358 6.79375 6.91595V19.9472C6.79375 20.5796 6.28111 21.0922 5.64874 21.0922H4.76185C4.12948 21.0922 3.61685 20.5796 3.61685 19.9472V6.91595Z" fill="#1D1D1B"/>
<path d="M19.2083 1.16311H11.8657C11.5445 1.16311 11.2842 0.902701 11.2842 0.581554C11.2842 0.260407 11.0238 3.42363e-08 10.7026 3.42363e-08H9.08731C8.76616 -0.000109014 8.50576 0.260298 8.50576 0.581445C8.50576 0.902701 8.24535 1.163 7.9242 1.163H0.581554C0.260407 1.16311 0 1.42351 0 1.74466V2.90788C0 3.22902 0.260407 3.48943 0.581554 3.48943H19.2082C19.5293 3.48943 19.7897 3.22902 19.7897 2.90788V1.74466C19.7898 1.42351 19.5294 1.16311 19.2083 1.16311Z" fill="#1D1D1B"/>
</svg>
