<svg width="20" height="20" viewBox="0 0 20 20" fill="none" xmlns="http://www.w3.org/2000/svg">
<path d="M0.000334786 10.0008C-0.0372181 4.57783 4.34906 0.116056 9.75883 0.00232274C15.5342 -0.118982 19.9225 4.52861 19.9989 9.82141C20.0804 15.4682 15.5639 19.8563 10.2913 19.9963C4.54457 20.1489 -0.045124 15.5071 0.000334786 10.0008ZM8.31699 14.987C7.91099 14.987 7.52508 14.9815 7.13934 14.9886C6.81784 14.9945 6.67257 15.1504 6.67125 15.4704C6.67026 15.7056 6.67043 15.9408 6.67125 16.176C6.6724 16.5165 6.82574 16.6665 7.17327 16.6665C8.3272 16.6668 9.48129 16.6665 10.6352 16.6665C11.364 16.6665 12.0929 16.6671 12.8217 16.6661C13.1707 16.6657 13.3229 16.5154 13.324 16.1737C13.3247 15.9688 13.3242 15.764 13.3242 15.5591C13.3242 15.1091 13.199 14.9865 12.7402 14.9865C12.3862 14.9865 12.0323 14.9865 11.666 14.9865C11.666 14.8546 11.666 14.7564 11.666 14.6581C11.666 12.7538 11.6661 10.8496 11.6653 8.94528C11.6653 8.85476 11.661 8.76341 11.6475 8.6742C11.6139 8.45381 11.4728 8.33843 11.2578 8.33777C9.86094 8.33382 8.46391 8.33366 7.06704 8.3381C6.82821 8.33893 6.67537 8.50714 6.67191 8.74399C6.66878 8.96388 6.68327 9.18476 6.66878 9.40384C6.63254 9.95078 6.89261 10.0113 7.266 10.0041C7.61238 9.99752 7.95892 10.0026 8.31699 10.0026C8.31699 11.6747 8.31699 13.3154 8.31699 14.987ZM9.9848 6.66156C10.3868 6.66156 10.7887 6.6637 11.1908 6.66091C11.5105 6.6586 11.6576 6.53269 11.6617 6.21157C11.6717 5.40836 11.6712 4.60465 11.6617 3.80144C11.6579 3.48296 11.5134 3.33729 11.1987 3.33367C10.3949 3.32429 9.59083 3.32544 8.7869 3.33351C8.48828 3.33647 8.33527 3.49053 8.33231 3.784C8.32391 4.59379 8.32111 5.40359 8.32704 6.21338C8.32934 6.52199 8.48532 6.65844 8.80188 6.66091C9.19586 6.66387 9.59033 6.66156 9.9848 6.66156Z" fill="black"/>
</svg>
