<svg width="24" height="20" viewBox="0 0 24 20" fill="none" xmlns="http://www.w3.org/2000/svg">
<path d="M3.99828 20C4.53837 18.9423 5.06265 17.9157 5.58871 16.8855C5.32846 16.7483 5.07226 16.6208 4.8231 16.4807C3.30448 15.627 2.02958 14.5094 1.11849 13.0097C0.235448 11.556 -0.139453 9.9784 0.0464709 8.28402C0.214138 6.75603 0.83182 5.41197 1.79657 4.225C2.96582 2.78645 4.44687 1.77111 6.14676 1.06178C7.9217 0.321132 9.77535 -0.0103342 11.6959 0.000245164C13.6063 0.0107943 15.4461 0.36487 17.2012 1.12295C18.9064 1.85949 20.3862 2.90418 21.5336 4.38308C22.3693 5.46024 22.9273 6.66589 23.1224 8.0208C23.3935 9.90435 22.9735 11.6405 21.9429 13.2309C20.9515 14.761 19.5893 15.8767 17.9878 16.7147C16.6377 17.4211 15.1995 17.8599 13.6938 18.0743C12.5284 18.2402 11.3584 18.2773 10.1859 18.1402C10.1095 18.1313 10.0253 18.1416 9.9513 18.1644C8.0345 18.7549 6.11859 19.3482 4.20246 19.9408C4.14654 19.9581 4.09004 19.9735 3.99828 20ZM10.5581 9.05184C10.5552 9.6558 11.0507 10.1569 11.6565 10.1625C12.284 10.1683 12.7918 9.66976 12.7867 9.05298C12.7816 8.43035 12.3066 7.95896 11.6824 7.95712C11.0527 7.95527 10.5611 8.43397 10.5581 9.05184ZM5.20438 9.04812C5.20628 9.68418 5.69281 10.1688 6.32425 10.1636C6.91799 10.1587 7.42529 9.6522 7.42616 9.06347C7.4271 8.43917 6.93416 7.95857 6.29245 7.95808C5.67314 7.95763 5.20254 8.42908 5.20438 9.04812ZM17.0542 7.9582C16.4402 7.95917 15.9452 8.44951 15.9437 9.0583C15.9422 9.64806 16.4631 10.1643 17.059 10.1636C17.6606 10.1629 18.1749 9.65525 18.1751 9.06169C18.1755 8.44528 17.6797 7.95721 17.0542 7.9582Z" fill="black"/>
</svg>
