<svg width="38" height="20" viewBox="0 0 38 20" fill="none" xmlns="http://www.w3.org/2000/svg">
<path d="M33.2002 12.2567C32.4661 12.2186 31.7763 12.3914 31.1627 12.699C34.2435 10.8201 37.5923 12.9702 37.5923 12.9702C35.6246 9.09339 31.2832 10.4253 30.5919 10.6663C30.3366 9.07595 29.8023 7.54268 29.0142 6.13626C28.3388 5.52105 28.1802 4.51895 28.6337 3.72615C28.7843 3.9624 29.0523 4.09559 29.3314 4.07498C29.0285 3.28853 29.0285 2.41962 29.3314 1.63316C29.0475 1.67122 28.778 1.78697 28.5544 1.96614C28.4688 1.45399 28.0787 1.04491 27.5713 0.935501C26.8515 1.17175 26.2458 1.66963 25.8748 2.33083L27.7616 6.34238C27.7616 6.34238 25.8906 6.13626 26.5407 9.98926C27.1908 13.8423 26.176 14.3814 26.176 14.3814C19.5165 15.4278 18.4225 14.3814 18.4225 14.3814C16.7037 12.6324 16.7275 9.82118 18.4764 8.1024C18.6096 7.97238 18.7491 7.85029 18.8981 7.73771C20.8326 7.86456 20.4837 6.05698 19.6909 5.9777C12.2069 5.28004 14.9341 2.45767 12.9997 4.02741C11.0653 5.59715 13.3168 7.73771 13.3168 7.73771L11.9532 7.92798V7.56329H3.75569V7.92798C4.59606 8.17375 5.07808 9.05375 4.83231 9.89412C4.81487 9.95437 4.79426 10.0115 4.77047 10.0685C4.06171 9.71495 3.22769 9.71495 2.51893 10.0685C2.20815 10.216 2.0369 10.5553 2.10667 10.893C2.0369 11.2308 2.20815 11.5701 2.51893 11.7176C2.44282 11.7921 2.3572 11.8555 2.26523 11.9078C-1.92074 16.5695 1.17117 15.4754 1.17117 15.4754L4.10769 15.5087C4.06488 15.7101 4.02207 15.913 4.00939 16.1255C4.13782 18.3818 6.06432 20.1117 8.32221 19.9944C10.5801 20.1117 12.5066 18.3818 12.635 16.1255C12.6255 15.9463 12.5843 15.7767 12.5526 15.6039L13.8559 15.6181C13.9955 15.9717 14.3316 16.2095 14.7122 16.2206C14.7122 16.2206 22.2596 16.3316 24.2257 16.3316C25.4577 16.3031 26.6279 15.783 27.4762 14.8887C27.2431 15.1868 27.056 15.5182 26.9212 15.8718C28.7764 15.3454 27.76 15.3264 30.0813 13.4792C29.3995 14.1657 28.9461 15.0838 28.8874 16.1255C29.0158 18.3818 30.9423 20.1117 33.2002 19.9944C35.4581 20.1117 37.3846 18.3818 37.513 16.1255C37.3846 13.8692 35.4581 12.1393 33.2002 12.2567ZM10.0156 15.9479C10.0188 15.986 10.0204 16.024 10.0188 16.0621C10.0204 16.9373 9.3132 17.6493 8.43637 17.6509C8.39832 17.6509 8.36026 17.6493 8.32221 17.6477C7.44854 17.7095 6.69063 17.0499 6.62879 16.1763C6.62721 16.1382 6.62562 16.1001 6.62562 16.0621C6.62562 15.8766 6.6716 15.7037 6.73027 15.5373L9.91256 15.5737C9.9522 15.6958 10.0061 15.8131 10.0156 15.9479ZM33.3144 17.6509C33.2763 17.6509 33.2383 17.6493 33.2002 17.6477H33.1844C32.3107 17.7095 31.5528 17.0499 31.4909 16.1763C31.4878 16.1382 31.4862 16.1001 31.4878 16.0621C31.5781 15.1202 32.4153 14.4305 33.3572 14.5225C34.1722 14.6018 34.8191 15.2471 34.8968 16.0621C34.8984 16.9373 34.1912 17.6493 33.3144 17.6509Z" fill="#231F20"/>
</svg>
