<svg width="60" height="60" viewBox="0 0 60 60" fill="none" xmlns="http://www.w3.org/2000/svg">
<path d="M48.1598 0H11.8402C5.30107 0 0 5.29555 0 11.8279V48.1097C0 54.642 5.30107 59.9376 11.8402 59.9376H32.066C32.0648 59.9584 32.0635 59.9792 32.0624 60C35.2083 60 38.3541 60 41.5 60C41.5008 59.9792 41.5019 59.9584 41.5029 59.9376H48.1598C54.6989 59.9376 60 54.642 60 48.1097V11.8279C60 5.29555 54.6989 0 48.1598 0ZM56.0775 46.0054C56.0775 51.5358 51.5895 56.0192 46.0533 56.0192H41.5171C41.5175 49.7513 41.5177 43.4834 41.5177 37.2155C41.5177 37.0838 41.5177 36.9522 41.5177 36.7919C41.6794 36.7919 41.8021 36.7919 41.9248 36.7919C44.2683 36.7919 46.6118 36.7878 48.9553 36.7976C49.2164 36.7986 49.3132 36.729 49.347 36.4612C49.6966 33.6876 50.0597 30.9157 50.4196 28.1434C50.4758 27.7104 50.4771 27.7097 50.0381 27.7096C47.33 27.7093 44.6221 27.7095 41.914 27.7095C41.7925 27.7095 41.6709 27.7095 41.5345 27.7095C41.5274 27.5895 41.5185 27.5087 41.5185 27.4278C41.5178 25.555 41.5103 23.6821 41.5239 21.8094C41.5273 21.3539 41.576 20.8951 41.6462 20.4445C41.8776 18.961 42.7732 18.0241 44.2534 17.7624C44.8546 17.6561 45.4737 17.6188 46.0855 17.6096C47.5225 17.5881 48.9601 17.5944 50.3973 17.6092C50.703 17.6124 50.7781 17.5171 50.7767 17.2204C50.7651 14.7857 50.7702 12.3511 50.7702 9.91633C50.7702 9.45635 50.7702 9.45577 50.3245 9.40033C50.1699 9.38111 50.0151 9.35868 49.8596 9.34925C48.6444 9.27589 47.4298 9.18214 46.2134 9.13925C44.258 9.07031 42.3023 9.00958 40.3735 9.47486C37.2778 10.2217 34.9044 11.9115 33.4387 14.77C32.5309 16.5405 32.1224 18.4462 32.1019 20.4282C32.0778 22.7481 32.0887 25.0685 32.0836 27.3887C32.0834 27.4886 32.0737 27.5887 32.0674 27.7094C31.9129 27.7094 31.7893 27.7094 31.6659 27.7094C29.3224 27.7094 26.9789 27.7092 24.6354 27.7095C24.233 27.7096 24.2326 27.7106 24.2326 28.1239C24.2324 30.8708 24.2325 33.6176 24.2326 36.3644C24.2326 36.7912 24.2329 36.7917 24.6466 36.7917C27.0004 36.7918 29.3544 36.7917 31.7083 36.7917C31.8203 36.7917 31.9323 36.7917 32.0664 36.7917C32.0731 36.9092 32.0827 36.9998 32.0827 37.0903C32.0831 43.3998 32.0826 49.7094 32.0818 56.019H13.9467C8.41053 56.019 3.92252 51.5357 3.92252 46.0052V13.9322C3.92252 8.40179 8.41053 3.91844 13.9467 3.91844H46.0533C51.5895 3.91844 56.0775 8.40179 56.0775 13.9322V46.0054Z" fill="white"/>
</svg>
