<svg width="28" height="28" viewBox="0 0 28 28" fill="none" xmlns="http://www.w3.org/2000/svg">
<path d="M6.03077 0C6.4106 0.437662 6.8782 0.826323 7.15432 1.32182C8.1144 3.04435 9.00609 4.80491 9.92783 6.54888C10.4163 7.47309 10.3296 8.11914 9.59269 8.88246C9.21889 9.26962 8.85123 9.66452 8.45417 10.0268C8.09222 10.357 8.06292 10.7178 8.22877 11.1446C8.75571 12.5007 9.54412 13.6977 10.512 14.7677C12.0306 16.4467 13.6086 18.0666 15.6081 19.1964C15.6861 19.2405 15.7624 19.2878 15.8408 19.3315C17.2467 20.1162 17.4395 20.0878 18.5522 18.9437C18.8273 18.6607 19.1005 18.3753 19.3859 18.1028C20.0164 17.5005 20.8704 17.3641 21.6159 17.7963C23.4779 18.8759 25.3354 19.9641 27.1718 21.0863C27.5038 21.289 27.7267 21.6703 27.9999 21.9691C27.9999 22.2204 27.9999 22.4717 27.9999 22.723C27.6582 23.1065 27.3318 23.5049 26.9718 23.8704C26.1049 24.7508 25.2104 25.6041 24.3504 26.4909C23.7231 27.138 23.0736 27.7364 22.1846 28C21.718 28 21.2512 28 20.7846 28C20.6654 27.9666 20.5481 27.9164 20.4266 27.9025C18.6005 27.6942 16.9118 27.0593 15.292 26.2271C10.6964 23.8659 7.07452 20.3814 3.98752 16.308C2.35265 14.1504 1.06066 11.7978 0.385969 9.14685C0.250062 8.61258 0.128262 8.07466 0 7.53846C0 6.96414 0 6.38971 0 5.81538C0.337723 5.25969 0.596077 4.63055 1.02889 4.16285C2.11831 2.98588 3.27955 1.87482 4.42777 0.753308C4.71649 0.471262 5.06402 0.249415 5.38462 0C5.6 0 5.81538 0 6.03077 0Z" fill="white"/>
</svg>
