<svg viewBox="0 0 60 60" fill="none" xmlns="http://www.w3.org/2000/svg">
<path d="M48.1598 0H11.8402C5.30107 0 0 5.30107 0 11.8402V48.1598C0 54.6989 5.30107 60 11.8402 60H48.1598C54.6989 60 60 54.6989 60 48.1598V11.8402C60 5.30107 54.6989 0 48.1598 0ZM56.0775 46.0533C56.0775 51.5895 51.5895 56.0775 46.0533 56.0775H13.9467C8.41053 56.0775 3.92252 51.5895 3.92252 46.0533V13.9467C3.92252 8.41053 8.41053 3.92252 13.9467 3.92252H46.0533C51.5895 3.92252 56.0775 8.41053 56.0775 13.9467V46.0533Z" fill="white"/>
<path d="M30 16.7391C22.6762 16.7391 16.7391 22.6762 16.7391 29.9999C16.7391 37.3237 22.6762 43.2608 30 43.2608C37.3238 43.2608 43.2609 37.3237 43.2609 29.9999C43.2609 22.6762 37.3238 16.7391 30 16.7391ZM30 39.1032C24.9724 39.1032 20.8968 35.0275 20.8968 29.9999C20.8968 24.9724 24.9724 20.8967 30 20.8967C35.0275 20.8967 39.1032 24.9724 39.1032 29.9999C39.1032 35.0275 35.0275 39.1032 30 39.1032Z" fill="white"/>
<path d="M13.7904 16.7392C15.4189 16.7392 16.7391 15.419 16.7391 13.7905C16.7391 12.1619 15.4189 10.8417 13.7904 10.8417C12.1619 10.8417 10.8417 12.1619 10.8417 13.7905C10.8417 15.419 12.1619 16.7392 13.7904 16.7392Z" fill="white"/>
</svg>
