<svg width="50" height="50" viewBox="0 0 50 50" fill="none" xmlns="http://www.w3.org/2000/svg">
<g filter="url(#filter0_d)">
  <path d="M25 5C13.9543 5 5 13.9543 5 25C5 36.0457 13.9543 45 25 45C36.0457 45 45 36.0457 45 25C45 13.9543 36.0457 5 25 5ZM25 41.0284C16.1478 41.0284 8.97163 33.8522 8.97163 25C8.97163 16.1478 16.1478 8.97163 25 8.97163C33.8522 8.97163 41.0284 16.1478 41.0284 25C41.0284 33.8522 33.8522 41.0284 25 41.0284Z" fill="white" />
  <path d="M32.9675 31.4806L26.5111 25.0243L32.9675 18.568C33.3781 18.1573 33.3781 17.4917 32.9675 17.081C32.5568 16.6704 31.8911 16.6704 31.4805 17.081L25.0242 23.5373L18.5679 17.081C18.1572 16.6704 17.4916 16.6704 17.0809 17.081C16.6703 17.4917 16.6703 18.1573 17.0809 18.568L23.5372 25.0243L17.0809 31.4806C16.6703 31.8912 16.6703 32.5569 17.0809 32.9675C17.4916 33.3782 18.1572 33.3782 18.5679 32.9675L25.0242 26.5112L31.4805 32.9675C31.8911 33.3782 32.5568 33.3782 32.9675 32.9675C33.3781 32.557 33.3781 31.8912 32.9675 31.4806Z" fill="white" />
</g>
<defs>
  <filter id="filter0_d" x="0" y="0" width="50" height="50" filterUnits="userSpaceOnUse" colorInterpolationFilters="sRGB">
    <feFlood floodOpacity="0" result="BackgroundImageFix" />
    <feColorMatrix in="SourceAlpha" type="matrix" values="0 0 0 0 0 0 0 0 0 0 0 0 0 0 0 0 0 0 127 0" />
    <feOffset />
    <feGaussianBlur stdDeviation="2.5" />
    <feColorMatrix type="matrix" values="0 0 0 0 0 0 0 0 0 0 0 0 0 0 0 0 0 0 1 0" />
    <feBlend mode="normal" in2="BackgroundImageFix" result="effect1_dropShadow" />
    <feBlend mode="normal" in="SourceGraphic" in2="effect1_dropShadow" result="shape" />
  </filter>
</defs>
</svg>