<svg width="300" height="75" viewBox="0 0 300 75" fill="none" xmlns="http://www.w3.org/2000/svg">
<path d="M89.0221 24.0172H79.0988L69.4631 47.4592C69.3193 47.7468 69.607 47.1716 69.1755 48.0345C68.7441 48.8974 67.1621 50.4794 66.1554 50.9108C65.1487 51.4861 64.2858 51.6299 63.4229 51.6299C62.7038 51.6299 62.1285 51.3422 61.6971 50.9108C61.2656 50.3355 61.2656 49.6165 61.6971 48.6097C62.4162 46.7401 63.2791 44.8705 63.9981 43.0009C64.7172 41.4189 65.2925 39.837 65.8677 38.3988C66.443 36.8168 67.0183 35.6663 67.3059 34.8034C69.0317 30.9204 69.4631 27.9003 68.6002 26.0306C67.7373 24.161 65.7239 23.1543 62.2723 23.1543C61.5533 23.1543 60.978 23.1543 60.4027 23.2981C59.8275 23.2981 59.2522 23.442 58.8208 23.5858C58.2455 23.7296 57.814 23.8734 57.2388 23.8734L57.3826 26.7497L57.095 27.4688C58.5331 27.4688 58.6769 27.9003 58.9646 28.7631C59.2522 29.4822 59.2522 30.4889 58.6769 31.6395C58.3893 32.3585 57.9579 33.3653 57.3826 34.8034C56.8073 36.2416 56.2321 37.8235 55.513 39.4055C54.7939 40.9875 54.2187 42.5695 53.6434 44.0076C53.0681 45.4458 52.4929 46.5963 52.2052 47.3154C51.4861 49.185 51.0547 50.767 50.9109 52.2051C50.9109 53.6433 51.0547 54.7938 51.63 55.8005C52.2052 56.8072 52.9243 57.5263 53.931 57.9578C54.9377 58.3892 56.2321 58.6769 57.6702 58.6769C59.396 58.6769 61.2656 58.2454 63.1352 57.3825C65.0048 56.5196 66.7306 55.3691 68.1688 53.9309C68.4564 55.5129 69.1755 56.6634 70.326 57.3825C71.4766 58.1016 72.9147 58.533 74.7843 58.533C76.2225 58.533 77.6606 58.2454 79.0988 57.6701C80.537 57.0949 81.9751 56.3758 83.2695 55.5129C84.5638 54.65 85.7143 53.4995 86.721 52.349C87.7278 51.1984 88.303 50.3355 88.8783 49.0412L87.0087 46.1649C86.2896 47.7468 85.8582 48.7536 84.7076 49.6165C83.5571 50.4793 82.4066 51.0546 81.3999 51.1984C80.3931 51.3422 79.5303 51.1984 78.955 50.767C78.3797 50.3355 78.2359 49.4726 78.8112 48.3221L89.0221 24.0172Z" fill="black"/>
<path d="M136.194 58.2454C137.488 57.814 138.782 57.0949 140.077 56.3758C139.501 57.9578 138.782 59.5398 137.919 61.2656C137.057 62.8475 136.05 64.4295 135.043 65.7239C134.036 67.0182 132.886 68.0249 131.735 68.8878C130.585 69.7507 129.434 70.0383 128.284 70.0383C127.133 70.0383 126.127 69.6069 125.407 68.744C124.688 67.8811 124.401 66.7306 124.688 65.1486C125.12 63.4228 125.695 61.9846 126.414 60.8341C127.133 59.6836 127.852 58.8207 128.715 58.2454C129.29 58.3892 129.866 58.5331 130.441 58.6769C131.016 58.8207 131.735 58.8207 132.454 58.8207C133.749 58.9645 134.899 58.6769 136.194 58.2454ZM134.18 52.349C133.749 51.6299 133.605 50.767 133.605 49.6165C133.605 48.4659 133.893 47.1716 134.468 45.5896C135.043 44.0077 135.618 42.4257 136.625 40.6999C137.776 38.3988 138.782 36.3854 139.789 34.8034C140.796 33.2215 141.802 31.9271 142.809 30.9204C143.816 29.9137 144.823 29.1946 145.829 28.7632C146.836 28.3317 147.843 28.0441 148.849 28.0441C149.856 28.0441 150.719 28.3317 151.294 29.0508L142.522 50.3356C141.515 51.1985 140.364 51.7737 139.358 52.349C138.351 52.9242 137.344 53.0681 136.481 53.0681C135.331 53.3557 134.612 52.9242 134.18 52.349ZM163.231 24.1611H153.452L152.876 25.743C151.726 24.1611 150 23.442 147.843 23.442C143.672 23.442 139.789 24.8801 135.906 27.7565C132.023 30.6328 128.859 35.0911 126.27 41.1313C124.976 44.2953 124.257 47.3154 124.257 49.9041C124.257 52.4928 124.832 54.65 126.127 56.232C125.12 57.2387 124.113 58.3892 123.25 59.8274C122.387 61.4094 121.812 63.1352 121.524 64.7171C121.237 66.4429 121.381 67.8811 121.812 69.3193C122.243 70.7574 123.106 71.7641 124.113 72.7708C125.264 73.6337 126.702 74.0652 128.715 74.0652C133.317 74.0652 137.488 72.4832 141.227 69.4631C144.966 66.4429 147.987 61.9846 150.288 56.232C152.013 51.7737 153.739 47.6031 155.465 43.5762C156.184 41.8504 156.903 40.1246 157.622 38.255C158.341 36.5292 158.485 35.954 159.779 32.9338C160.499 31.208 161.218 29.6261 161.793 28.1879C162.224 26.6059 162.8 25.3116 163.231 24.1611Z" fill="black"/>
<path d="M183.222 29.6261C183.365 31.9271 181.927 40.4123 173.442 40.9875C170.853 40.9875 170.71 40.2684 170.71 40.2684C171.429 38.5427 171.716 37.6798 172.579 36.2416C173.442 34.6596 174.305 33.2215 175.168 32.0709C176.031 30.7766 176.894 29.7699 177.613 28.907C178.476 28.0441 179.051 27.4688 179.77 27.325C180.633 26.7497 183.078 27.325 183.222 29.6261ZM169.99 51.0546C168.696 49.3288 168.408 47.0278 169.128 44.4391C169.128 44.4391 177.613 46.5963 184.084 41.1313C186.385 38.9741 187.392 37.6798 188.399 35.6663C189.262 33.6529 189.693 31.6395 189.549 29.9137C189.406 28.0441 188.687 26.6059 187.392 25.3116C186.098 24.0172 184.228 23.442 181.783 23.442C177.181 23.442 173.011 24.8801 169.271 27.9003C165.532 30.9204 162.512 35.2349 160.211 41.1313C159.204 43.5762 158.773 45.8773 158.917 48.0345C158.917 50.1917 159.492 52.0613 160.499 53.6433C161.505 55.2253 162.8 56.5196 164.525 57.3825C166.251 58.2454 168.408 58.8207 170.853 58.8207C175.743 58.8207 179.914 57.9578 183.509 56.0882C187.105 54.3624 189.693 51.7737 191.131 48.6098L189.406 46.3087C188.686 47.3154 188.111 48.1783 187.105 49.0412C186.098 49.9041 184.947 50.767 183.797 51.4861C182.502 52.2052 181.352 52.7804 179.914 53.0681C178.619 53.4995 177.325 53.6433 176.031 53.6433C173.442 53.6433 171.285 52.7804 169.99 51.0546Z" fill="black"/>
<path d="M289.789 50.9108C289.214 50.4794 289.07 49.6165 289.645 48.466L295.398 34.372C296.836 30.6328 297.124 27.7565 295.973 25.8869C294.823 24.0173 292.809 23.0105 289.933 23.0105C288.207 23.0105 286.481 23.442 284.755 24.1611C283.03 24.8801 281.448 25.8869 280.01 27.1812C279.29 24.4487 277.133 23.0105 273.538 23.0105C271.812 23.0105 270.23 23.2982 268.504 24.0173C266.778 24.7363 265.34 25.743 263.902 26.8936C263.327 24.3049 261.17 23.0105 257.143 23.0105C256.424 23.0105 255.848 23.0105 255.417 23.1544C254.842 23.1544 254.41 23.2982 253.835 23.442C253.26 23.5858 252.828 23.7296 252.253 23.7296L252.541 26.6059L251.965 27.6127C253.26 27.6127 253.547 28.0441 253.835 28.7632C254.123 29.4823 254.123 30.489 253.691 31.6395C253.404 32.3586 252.828 33.5091 252.397 34.8034C251.822 36.0978 251.246 37.536 250.671 39.1179C250.096 40.6999 249.377 42.1381 248.801 43.5762C248.37 44.5829 248.226 44.7267 247.795 46.1649C247.651 46.4525 247.507 46.7402 247.507 47.0278C246.357 49.7603 245.781 51.9175 245.925 53.6433C245.925 54.5062 246.069 55.2253 246.357 55.8006C247.22 57.6702 249.377 58.5331 252.685 58.5331C253.979 58.5331 255.129 58.3893 255.992 58.2454C256.568 58.1016 256.999 57.9578 257.574 57.814L259.444 53.931H258.581C257.143 53.931 256.28 53.6433 255.992 52.9243C255.705 52.2052 255.705 51.1985 256.28 49.9041C256.424 49.4727 256.855 48.466 257.287 47.1716C257.862 45.8773 258.437 44.4391 259.012 42.8571C259.588 41.2752 260.307 39.6932 260.882 38.1112C261.601 36.5292 262.033 35.3787 262.464 34.372C262.608 33.9406 262.752 33.5091 262.895 33.2215C263.039 32.9338 263.183 32.5024 263.327 32.2148C264.19 31.4957 265.053 30.9204 266.059 30.489C266.922 30.2013 267.785 30.0575 268.36 30.0575C269.08 30.2013 269.511 30.489 269.799 30.9204C270.086 31.4957 270.086 32.0709 269.799 33.0777C268.936 35.0911 268.217 36.9607 267.498 38.6865C266.778 40.2685 266.203 41.8504 265.628 43.2886C265.053 44.8706 264.621 46.0211 264.19 46.884C262.464 50.767 262.176 53.7871 263.039 55.6568C263.902 57.5264 266.059 58.5331 269.367 58.5331C270.662 58.5331 271.812 58.3893 272.675 58.2454C273.25 58.1016 273.682 57.9578 274.257 57.814L275.983 53.931H275.12C273.825 53.931 272.963 53.6433 272.675 52.9243C272.387 52.2052 272.387 51.1985 272.819 49.9041L279.29 34.2282C279.434 33.7967 279.578 33.3653 279.722 33.0777C279.866 32.79 280.01 32.3586 280.153 32.0709C281.016 31.3519 281.879 30.7766 282.742 30.489C283.605 30.2013 284.468 30.0575 285.043 30.2013C285.762 30.3452 286.194 30.6328 286.481 31.0642C286.769 31.4957 286.769 32.2148 286.337 33.0777L280.585 47.0278C279.003 50.767 278.859 53.6433 280.01 55.5129C281.16 57.3825 283.173 58.3893 286.05 58.3893C287.488 58.3893 288.926 58.1016 290.364 57.5264C291.802 56.9511 293.241 56.232 294.535 55.3691C295.829 54.5062 296.98 53.3557 297.987 52.2052C298.993 51.0546 299.425 50.3356 300 48.8974L298.418 46.0211C297.699 47.6031 297.124 48.466 295.973 49.4727C294.823 50.3356 293.672 50.9108 292.665 51.0546C291.227 51.6299 290.508 51.4861 289.789 50.9108Z" fill="black"/>
<path d="M242.905 53.6433L241.898 50.767C240.604 52.0613 240.892 51.6299 239.453 52.0613C238.591 52.349 237.872 52.4928 237.152 52.4928C236.577 52.4928 236.002 52.349 235.57 52.0613C234.995 51.6299 234.851 50.767 235.427 49.6165C236.146 47.7468 237.44 44.8705 238.159 43.0009C238.878 41.4189 239.453 39.837 240.029 38.3988C240.604 36.9607 241.179 35.6663 241.467 34.8034C243.049 30.9204 243.48 27.9003 242.617 26.0306C241.755 24.161 239.597 23.1543 236.29 23.1543C235.714 23.1543 235.139 23.1543 234.564 23.2981C233.988 23.2981 233.413 23.442 232.982 23.5858C232.407 23.7296 231.975 23.8734 231.4 23.8734L231.687 26.8935L231.112 27.7564C232.55 27.7564 232.55 28.1879 232.982 28.907C233.269 29.626 233.269 30.6328 232.838 31.7833C232.55 32.5024 232.119 33.5091 231.544 34.9472C230.968 36.3854 230.393 37.9674 229.674 39.5493C228.955 41.1313 228.38 42.7133 227.804 44.1515C227.229 45.5896 226.654 46.7401 226.366 47.4592C224.784 51.1984 224.64 54.0747 225.791 55.9444C226.942 57.814 228.955 58.8207 231.831 58.8207C233.269 58.8207 234.708 58.533 236.146 57.9578C237.584 57.3825 239.022 56.6634 240.316 55.8005C241.323 55.0815 242.186 54.5062 242.905 53.6433Z" fill="black"/>
<path d="M44.4391 16.5388C43.4324 19.4151 41.8504 22.0038 39.6932 24.0173C37.536 26.1745 35.2349 27.1812 32.5024 27.1812C30.489 27.325 29.4823 27.325 28.3317 27.0374L37.1045 6.90316C37.536 6.90316 37.8236 6.75934 38.255 6.75934C38.6865 6.75934 38.9741 6.75934 39.4056 6.75934C40.2685 6.75934 41.1314 6.90316 41.9943 7.3346C42.8572 7.76605 43.4324 8.34131 44.0077 9.20421C44.5829 10.0671 44.8706 11.0738 45.0144 12.2243C45.1582 13.5187 44.8706 14.813 44.4391 16.5388ZM26.1745 32.3586C27.325 32.2148 39.2618 29.1946 39.6932 36.8169C39.837 56.5196 18.2646 53.0681 17.4017 52.6366L26.1745 32.3586ZM56.232 11.2176C55.8006 9.49184 55.0815 7.90987 53.7872 6.61552C52.4928 5.32118 50.9108 4.31447 48.7536 3.73921C46.5964 3.02013 44.2953 2.73249 41.5628 2.73249C38.6865 2.73249 34.9473 2.87631 31.4957 3.16394C31.3519 3.16394 31.0643 3.16394 30.489 3.30776C29.6261 3.45157 28.7632 3.45157 28.0441 3.59539C27.7565 3.59539 27.4689 3.59539 27.1812 3.73921C26.8936 3.73921 26.606 3.73921 26.1745 3.88302C24.4487 4.02684 23.0106 4.17065 22.7229 4.31447C22.0038 4.31447 21.5724 4.45829 20.9971 4.6021L20.5657 7.19079V8.34131C22.0038 8.34131 22.2915 8.77276 22.5791 9.63566C22.8667 10.3547 22.8667 11.3614 22.4353 12.512C22.1477 13.2311 21.7162 14.2378 21.141 15.6759L17.8332 23.0105L2.44489 58.2454H13.9502L14.3816 57.0949C31.4957 61.8408 43.7201 56.3758 48.7536 44.7267C49.4727 42.8571 49.9041 40.9875 49.9041 39.2617C49.9041 37.5359 49.6165 35.954 48.8974 34.5158C48.1783 33.0777 47.3154 31.9271 46.0211 30.9204C44.8706 29.9137 43.4324 29.3384 41.7066 29.0508C43.001 28.6194 44.2953 28.0441 45.7335 27.1812C47.1716 26.3183 48.6098 25.4554 49.9041 24.4487C51.1985 23.442 52.349 22.2915 53.3557 20.9971C54.3624 19.7028 55.0815 18.5522 55.513 17.1141C56.3758 15.1007 56.5197 13.0872 56.232 11.2176Z" fill="black"/>
<path d="M124.545 31.208C124.113 27.7564 121.812 25.0239 119.367 24.7363C119.08 24.7363 118.648 24.5925 118.36 24.5925C117.929 24.5925 117.354 24.5925 116.778 24.7363C116.203 24.8801 115.772 25.0239 115.197 25.3116C114.046 25.8868 112.895 26.6059 111.745 27.4688C111.457 27.7564 111.026 28.1879 110.738 28.4755L110.594 27.9003C110.307 26.3183 109.3 25.3116 108.15 24.5925C106.999 23.8734 105.848 23.1543 103.979 23.1543C102.541 23.1543 101.103 23.442 99.6644 24.0172C98.2263 24.5925 96.7881 25.3116 95.4937 26.1745C94.1994 27.0374 93.0489 28.1879 92.0422 29.4822C91.0355 30.7766 90.1726 32.0709 89.5973 33.5091L91.1793 36.0978C91.8983 34.5158 92.9051 33.2214 94.1994 32.2147C95.3499 31.3518 96.5005 30.7766 97.5072 30.6328C98.5139 30.4889 99.3768 30.6328 99.952 31.0642C100.527 31.4957 100.671 32.3585 100.096 33.5091L89.8849 58.6769H99.8082L108.581 36.8168C109.156 35.8101 110.307 33.3653 113.039 33.5091C113.471 33.5091 113.902 33.6529 114.334 34.0843C114.765 34.5158 115.053 35.6663 115.197 36.0978C115.916 37.8236 117.498 39.1179 119.655 39.1179C122.243 39.1179 124.401 37.1045 124.545 34.6596C124.832 33.5091 124.832 32.5024 124.545 31.208Z" fill="black"/>
<path d="M227.229 31.208C226.798 27.7564 224.497 25.0239 222.052 24.7363C221.764 24.7363 221.333 24.5925 221.045 24.5925C220.614 24.5925 220.038 24.5925 219.463 24.7363C218.888 24.8801 218.456 25.0239 217.881 25.3116C216.731 25.8868 215.58 26.6059 214.43 27.4688C214.142 27.7564 213.71 28.1879 213.423 28.4755L213.279 27.9003C212.991 26.3183 211.985 25.4554 210.834 24.7363C209.684 24.0172 208.533 23.1543 206.664 23.1543C205.225 23.1543 203.787 23.442 202.349 24.0172C200.911 24.5925 199.473 25.3116 198.178 26.1745C196.884 27.0374 195.733 28.1879 194.727 29.4822C193.72 30.7766 192.426 32.6462 191.85 34.0843L193.576 36.2416C194.295 34.6596 195.59 33.0776 196.74 32.2147C197.891 31.3518 199.041 30.7766 200.048 30.6328C201.055 30.4889 201.918 30.6328 202.493 31.0642C203.068 31.4957 203.212 32.3585 202.637 33.5091L192.426 58.6769H202.349L211.122 36.8168C211.697 35.8101 212.848 33.3653 215.58 33.5091C216.012 33.5091 216.443 33.6529 216.874 34.0843C217.306 34.5158 217.594 35.6663 217.737 36.0978C218.456 37.8236 220.038 39.1179 222.196 39.1179C224.784 39.1179 226.942 37.1045 227.085 34.6596C227.373 33.5091 227.373 32.5024 227.229 31.208Z" fill="black"/>
<path d="M238.159 18.6961C239.454 18.6961 240.748 18.2646 241.611 17.2579C242.617 16.2512 243.049 15.1007 243.049 13.8063C243.049 12.512 242.617 11.2177 241.611 10.3548C240.604 9.34805 239.454 8.9166 238.159 8.9166C236.721 8.9166 235.57 9.34805 234.564 10.3548C233.557 11.3615 233.126 12.512 233.126 13.8063C233.126 15.1007 233.557 16.395 234.564 17.2579C235.57 18.2646 236.721 18.6961 238.159 18.6961Z" fill="black"/>
<path d="M87.8715 22.4353H77.9482L68.3125 45.8773C68.1687 46.1649 68.4563 45.5896 68.0249 46.4525C67.5934 47.3154 66.0115 48.8974 65.0047 49.3289C63.998 49.9041 63.1351 50.0479 62.2722 50.0479C61.5532 50.0479 60.9779 49.7603 60.5464 49.3289C60.115 48.7536 60.115 48.0345 60.5464 47.0278C61.2655 45.1582 62.1284 43.2886 62.8475 41.419C63.5666 39.837 64.1418 38.255 64.7171 36.8169C65.2924 35.2349 65.8676 34.0844 66.1553 33.2215C67.8811 29.3384 68.3125 26.3183 67.4496 24.4487C66.5867 22.5791 64.5733 21.5724 61.1217 21.5724C60.4026 21.5724 59.8274 21.5724 59.2521 21.7162C58.6768 21.7162 58.1016 21.86 57.6701 22.0038C57.0949 22.1477 56.6634 22.2915 56.0882 22.2915L54.3624 26.1745H55.2253C56.6634 26.1745 57.5263 26.6059 57.8139 27.325C58.1016 28.0441 58.1016 29.0508 57.5263 30.2013C57.2387 30.9204 56.8072 31.9271 56.232 33.3653C55.6567 34.8035 55.0814 36.3854 54.3624 37.9674C53.6433 39.5494 53.068 41.1314 52.4928 42.5695C51.9175 44.0077 51.3422 45.1582 51.0546 45.8773C50.3355 47.7469 49.9041 49.3289 49.7603 50.767C49.7603 52.2052 49.9041 53.3557 50.4793 54.3624C51.0546 55.3691 51.7737 56.0882 52.7804 56.5197C53.7871 56.9511 55.0814 57.2387 56.5196 57.2387C58.2454 57.2387 60.115 56.8073 61.9846 55.9444C63.8542 55.0815 65.58 53.931 67.0182 52.4928C67.3058 54.0748 68.0249 55.2253 69.1754 55.9444C70.3259 56.6635 71.7641 57.0949 73.6337 57.0949C75.0719 57.0949 76.51 56.8073 77.9482 56.232C79.3863 55.6568 80.8245 54.9377 82.1188 54.0748C83.4132 53.2119 84.5637 52.0614 85.5704 50.9108C86.5771 49.7603 87.2962 48.6098 88.0153 47.1716L86.1457 44.4391C85.4266 46.0211 84.8513 47.1716 83.557 48.0345C82.4065 48.8974 81.2559 49.4727 80.2492 49.6165C79.2425 49.7603 78.3796 49.6165 77.8044 49.185C77.2291 48.7536 77.0853 47.8907 77.6605 46.7402L87.8715 22.4353Z" fill="white"/>
<path d="M135.043 56.6635C136.337 56.232 137.632 55.513 138.926 54.7939C138.351 56.3759 137.632 57.9578 136.769 59.6836C135.906 61.2656 134.899 62.8476 133.893 64.1419C132.886 65.4363 131.735 66.443 130.585 67.3059C129.434 68.1688 128.284 68.4564 127.133 68.4564C125.983 68.4564 124.976 68.0249 124.257 67.1621C123.538 66.2992 123.25 65.1486 123.538 63.5667C123.969 61.8409 124.545 60.4027 125.264 59.2522C125.983 58.1016 126.702 57.2388 127.565 56.6635C128.14 56.8073 128.715 56.9511 129.29 57.0949C129.866 57.2388 130.585 57.2388 131.304 57.2388C132.454 57.3826 133.749 57.0949 135.043 56.6635ZM132.886 50.767C132.454 50.048 132.311 49.1851 132.311 48.0345C132.311 46.884 132.598 45.5897 133.174 44.0077C133.749 42.4257 134.324 40.8437 135.331 39.1179C136.481 36.8169 137.488 34.8035 138.495 33.2215C139.501 31.6395 140.508 30.3452 141.515 29.3385C142.522 28.3318 143.528 27.6127 144.535 27.1812C145.542 26.7498 146.548 26.4621 147.555 26.4621C148.562 26.4621 149.425 26.7498 150 27.4689L141.227 48.7536C140.22 49.6165 139.07 50.1918 138.063 50.767C137.057 51.3423 136.05 51.4861 135.187 51.4861C134.18 51.7737 133.461 51.4861 132.886 50.767ZM162.08 22.5791H152.301L151.726 24.1611C150.575 22.5791 148.849 21.86 146.692 21.86C142.522 21.86 138.639 23.2982 134.755 26.1745C130.872 29.0508 127.709 33.5091 125.12 39.5494C123.825 42.7133 123.106 45.7335 123.106 48.3222C123.106 50.9108 123.682 53.0681 124.976 54.6501C123.969 55.6568 122.963 56.8073 122.1 58.2455C121.237 59.8274 120.662 61.5532 120.374 63.1352C120.086 64.861 120.23 66.2992 120.662 67.7373C121.093 69.1755 121.956 70.1822 122.963 71.1889C124.113 72.0518 125.551 72.4832 127.565 72.4832C132.167 72.4832 136.337 70.9013 140.077 67.8811C143.816 64.861 146.836 60.4027 149.137 54.6501C150.863 50.1918 152.589 46.0211 154.314 41.9943C155.034 40.2685 155.753 38.5427 156.472 36.6731C157.191 34.9473 157.335 34.372 158.629 31.3519C159.348 29.6261 160.067 28.0441 160.642 26.606C161.074 25.024 161.505 23.7296 162.08 22.5791Z" fill="white"/>
<path d="M182.071 28.0441C182.215 30.3452 180.777 38.8303 172.292 39.4056C169.703 39.4056 169.559 38.6865 169.559 38.6865C170.278 36.9607 170.566 36.0978 171.429 34.6597C172.292 33.0777 173.154 31.6395 174.017 30.489C174.88 29.1947 175.743 28.1879 176.462 27.325C177.325 26.4621 177.9 25.8869 178.619 25.7431C179.338 25.3116 181.783 25.7431 182.071 28.0441ZM168.84 49.4727C167.546 47.7469 167.258 45.4458 167.977 42.8572C167.977 42.8572 176.462 45.0144 182.934 39.5494C185.235 37.3922 186.242 36.0978 187.248 34.0844C188.111 32.071 188.543 30.0575 188.399 28.3318C188.255 26.4621 187.536 25.024 186.242 23.7296C184.947 22.4353 183.078 21.86 180.633 21.86C176.031 21.86 171.86 23.2982 168.121 26.3183C164.382 29.3385 161.362 33.6529 159.06 39.5494C158.054 41.9943 157.622 44.2953 157.766 46.4526C157.766 48.6098 158.341 50.4794 159.348 52.0614C160.355 53.6434 161.649 54.9377 163.375 55.8006C165.101 56.6635 167.258 57.2388 169.703 57.2388C174.593 57.2388 178.763 56.3759 182.359 54.5063C185.954 52.7805 188.543 50.048 190.125 46.884L188.543 44.2953C187.824 45.302 187.105 46.4526 186.098 47.4593C185.091 48.3222 183.941 49.1851 182.79 49.9041C181.496 50.6232 180.345 51.1985 178.907 51.4861C177.613 51.9176 176.318 52.0614 175.024 52.0614C172.148 52.0614 170.134 51.1985 168.84 49.4727Z" fill="white"/>
<path d="M288.639 49.3289C288.063 48.8974 287.919 48.0345 288.495 46.884L294.247 32.7901C295.685 29.0508 295.973 26.1745 294.823 24.3049C293.672 22.4353 291.659 21.4286 288.782 21.4286C287.057 21.4286 285.331 21.8601 283.605 22.5791C281.879 23.2982 280.297 24.3049 278.859 25.5993C278.14 22.8668 275.983 21.4286 272.387 21.4286C270.662 21.4286 269.08 21.7162 267.354 22.4353C265.628 23.1544 264.19 24.1611 262.752 25.3116C262.176 22.7229 260.019 21.4286 255.992 21.4286C255.273 21.4286 254.698 21.4286 254.267 21.5724C253.691 21.5724 253.26 21.7162 252.685 21.8601C252.109 22.0039 251.678 22.1477 251.103 22.1477L249.377 26.0307H250.24C251.534 26.0307 252.397 26.4622 252.685 27.1812C252.972 27.9003 252.972 28.907 252.541 30.0576C252.253 30.7766 251.678 31.9272 251.246 33.2215C250.671 34.5159 250.096 35.954 249.521 37.536C248.945 39.118 248.226 40.5561 247.651 41.9943C247.22 43.001 247.076 43.1448 246.644 44.583C246.5 44.8706 246.357 45.1582 246.357 45.4459C245.206 48.1784 244.631 50.3356 244.775 52.0614C244.775 52.9243 244.918 53.6434 245.206 54.2186C246.069 56.0882 248.226 56.9511 251.534 56.9511C252.828 56.9511 253.979 56.8073 254.842 56.6635C255.417 56.5197 255.848 56.3759 256.424 56.2321L258.293 52.349H257.43C255.992 52.349 255.129 52.0614 254.842 51.3423C254.554 50.6232 254.554 49.6165 255.129 48.3222C255.273 47.8907 255.705 46.884 256.136 45.5897C256.711 44.2953 257.287 42.8572 257.862 41.2752C258.437 39.6932 259.156 38.1112 259.732 36.5293C260.451 34.9473 260.882 33.7968 261.313 32.7901C261.457 32.3586 261.601 31.9272 261.745 31.6395C261.889 31.3519 262.033 30.9205 262.176 30.6328C263.039 29.9137 263.902 29.3385 264.909 28.907C265.772 28.6194 266.635 28.4756 267.21 28.4756C267.929 28.6194 268.36 28.907 268.648 29.3385C268.936 29.9137 268.936 30.489 268.648 31.4957C267.785 33.5091 267.066 35.3787 266.347 37.1045C265.628 38.6865 265.053 40.2685 264.477 41.7066C263.902 43.2886 263.471 44.4391 263.039 45.302C261.313 49.1851 261.026 52.2052 261.889 54.0748C262.752 55.9444 264.909 56.9511 268.217 56.9511C269.511 56.9511 270.662 56.8073 271.524 56.6635C272.1 56.5197 272.531 56.3759 273.106 56.2321L274.832 52.349H273.969C272.675 52.349 271.812 52.0614 271.524 51.3423C271.237 50.6232 271.237 49.6165 271.668 48.3222L278.14 32.6462C278.284 32.2148 278.428 31.7833 278.571 31.4957C278.715 31.2081 278.859 30.7766 279.003 30.489C279.866 29.7699 280.729 29.1947 281.592 28.907C282.454 28.6194 283.317 28.4756 283.893 28.6194C284.612 28.7632 285.043 29.0508 285.331 29.4823C285.618 29.9137 285.618 30.6328 285.187 31.4957L279.434 45.4459C277.852 49.1851 277.708 52.0614 278.859 53.931C280.01 55.8006 282.023 56.8073 284.899 56.8073C286.337 56.8073 287.776 56.5197 289.214 55.9444C290.652 55.3692 292.09 54.6501 293.384 53.7872C294.679 52.9243 295.829 51.7738 296.836 50.6232C297.843 49.4727 298.418 48.0345 298.993 46.5964L297.411 44.2953C296.692 45.8773 295.973 47.0278 294.823 47.8907C293.672 48.7536 292.522 49.3289 291.515 49.4727C290.077 50.048 289.214 49.9042 288.639 49.3289Z" fill="white"/>
<path d="M234.132 48.0345C234.851 46.1649 236.146 43.2886 236.865 41.419C237.584 39.837 238.159 38.255 238.734 36.8169C239.31 35.2349 239.885 34.0844 240.173 33.2215C241.755 29.3384 242.186 26.3183 241.323 24.4487C240.46 22.5791 238.303 21.5724 234.995 21.5724C234.42 21.5724 233.845 21.5724 233.269 21.7162C232.694 21.7162 232.119 21.86 231.687 22.0038C231.112 22.1477 230.681 22.2915 230.105 22.2915L228.236 26.1745H229.099C230.537 26.1745 231.4 26.6059 231.687 27.325C231.975 28.0441 231.975 29.0508 231.544 30.2013C231.256 30.9204 230.825 31.9271 230.249 33.3653C229.674 34.8035 229.099 36.3854 228.38 37.9674C227.661 39.5494 227.085 41.1314 226.51 42.5695C225.935 44.0077 225.36 45.1582 225.072 45.8773C223.49 49.6165 223.346 52.4928 224.497 54.3624C225.647 56.232 227.661 57.2387 230.537 57.2387C231.975 57.2387 233.413 56.9511 234.851 56.3758C236.29 55.8006 237.728 55.0815 239.022 54.2186C240.029 53.4995 241.323 52.349 242.042 51.6299L241.898 51.0546L241.179 48.1783C239.885 49.4727 239.597 50.0479 238.159 50.4794C237.296 50.767 236.577 50.9108 235.858 50.9108C235.283 50.9108 234.708 50.767 234.276 50.4794C233.701 50.0479 233.701 49.3289 234.132 48.0345Z" fill="white"/>
<path d="M43.1448 14.9568C42.1381 17.8332 40.5561 20.4219 38.3989 22.4353C36.2416 24.5925 33.9406 25.5992 31.2081 25.5992C29.1947 25.743 28.1879 25.743 27.0374 25.4554L35.8102 5.32118C36.2416 5.32118 36.5293 5.17736 36.9607 5.17736C37.3922 5.17736 37.6798 5.17736 38.1112 5.17736C38.9741 5.17736 39.837 5.32118 40.6999 5.75263C41.5628 6.18408 42.1381 6.75934 42.7134 7.62223C43.2886 8.48513 43.5763 9.49184 43.7201 10.6424C43.8639 11.9367 43.7201 13.3749 43.1448 14.9568ZM24.8802 30.9204C26.0307 30.7766 37.9674 27.7565 38.3989 35.3787C38.5427 55.0815 16.9703 51.6299 16.1074 51.1985L24.8802 30.9204ZM54.9377 9.77947C54.5063 8.05368 53.7872 6.47171 52.4928 5.17736C51.1985 3.88302 49.6165 2.87631 47.4593 2.30105C45.302 1.58197 43.001 1.29433 40.2685 1.29433C37.3922 1.29433 33.653 1.43815 30.2014 1.72578C30.0576 1.72578 29.7699 1.72578 29.1947 1.8696C28.3318 2.01341 27.4689 2.01341 26.7498 2.15723C26.4622 2.15723 26.1745 2.15723 25.8869 2.30105C25.5993 2.30105 25.3116 2.30105 24.8802 2.44486C23.0106 2.44486 21.5724 2.58868 21.2848 2.58868C20.7095 2.73249 20.2781 2.87631 19.7028 2.87631L17.8332 6.75934H18.6961C20.1343 6.75934 20.9972 7.19079 21.2848 7.90987C21.5724 8.62895 21.5724 9.63566 21.141 10.7862C20.8533 11.5053 20.4219 12.512 19.8466 13.9501L16.5389 21.2847L1.29437 56.8073H12.7996L13.2311 55.6567C30.2014 60.4027 42.4257 54.9377 47.4593 43.2886C48.1784 41.419 48.6098 39.5494 48.6098 37.8236C48.6098 36.0978 48.3222 34.5158 47.6031 33.0777C46.884 31.6395 46.0211 30.489 44.7268 29.4823C43.5763 28.4755 42.1381 27.9003 40.4123 27.6126C41.7066 27.325 43.1448 26.6059 44.583 25.8869C46.0211 25.024 47.4593 24.1611 48.7536 23.1544C50.048 22.1476 51.1985 20.9971 52.2052 19.7028C53.2119 18.4084 53.931 17.2579 54.3624 15.8197C55.0815 13.5187 55.3692 11.5053 54.9377 9.77947Z" fill="white"/>
<path d="M123.394 29.7699C122.963 26.3183 120.662 23.5858 118.217 23.2981C117.929 23.2981 117.498 23.1543 117.21 23.1543C116.779 23.1543 116.203 23.1543 115.628 23.2981C115.053 23.442 114.621 23.5858 114.046 23.8734C112.895 24.4487 111.745 25.1677 110.594 26.0306C110.307 26.3183 109.875 26.7497 109.588 27.0374L109.444 26.4621C109.156 24.8801 108.437 23.7296 107.287 22.8667C106.136 22.0038 104.698 21.7162 102.828 21.7162C101.39 21.7162 99.9521 22.0038 98.5139 22.5791C97.0757 23.1543 95.6376 23.8734 94.3432 24.7363C93.0489 25.5992 91.8984 26.7497 90.8916 28.0441C89.8849 29.3384 89.022 30.6328 88.4468 32.0709L90.0288 34.6596C90.7478 33.0776 91.7545 31.7833 93.0489 30.7766C94.1994 29.9137 95.3499 29.3384 96.3567 29.1946C97.3634 29.0508 98.2263 29.1946 98.8015 29.626C99.3768 30.0575 99.5206 30.9204 98.9453 32.0709L88.7344 57.2387H98.6577L107.43 35.3787C108.006 34.372 109.156 31.9271 111.889 32.0709C112.32 32.0709 112.752 32.2147 113.183 32.6462C113.615 33.0776 113.902 34.2282 114.046 34.6596C114.765 36.3854 116.347 37.6797 118.504 37.6797C121.093 37.6797 123.25 35.6663 123.394 33.2214C123.538 31.9271 123.538 30.9204 123.394 29.7699Z" fill="white"/>
<path d="M225.935 29.7699C225.503 26.3183 223.202 23.5858 220.757 23.2981C220.47 23.2981 220.038 23.1543 219.751 23.1543C219.319 23.1543 218.744 23.1543 218.169 23.2981C217.593 23.442 217.162 23.5858 216.587 23.8734C215.436 24.4487 214.286 25.1677 213.135 26.0306C212.847 26.3183 212.416 26.7497 212.128 27.0374L211.985 26.4621C211.697 24.8801 210.978 23.7296 209.827 22.8667C208.677 22.0038 207.239 21.7162 205.369 21.7162C203.931 21.7162 202.493 22.0038 201.055 22.5791C199.616 23.1543 198.178 23.8734 196.884 24.7363C195.59 25.5992 194.439 26.7497 193.432 28.0441C192.426 29.3384 191.275 31.0642 190.7 32.5024L192.138 34.9472C192.857 33.3653 194.295 31.7833 195.446 30.7766C196.596 29.9137 197.747 29.3384 198.754 29.1946C199.76 29.0508 200.623 29.1946 201.198 29.626C201.774 30.0575 201.917 30.9204 201.342 32.0709L191.275 57.0949H201.198L209.971 35.2349C210.546 34.2282 211.697 31.7833 214.429 31.9271C214.861 31.9271 215.292 32.0709 215.724 32.5024C216.155 32.9338 216.443 34.0843 216.587 34.5158C217.306 36.2416 218.888 37.5359 221.045 37.5359C223.634 37.5359 225.791 35.5225 225.935 33.0776C226.079 31.9271 226.079 30.9204 225.935 29.7699Z" fill="white"/>
<path d="M237.009 17.2579C238.303 17.2579 239.597 16.8265 240.46 15.8198C241.467 14.8131 241.898 13.6625 241.898 12.3682C241.898 11.0738 241.467 9.7795 240.46 8.91661C239.454 7.90989 238.303 7.47845 237.009 7.47845C235.57 7.47845 234.42 7.90989 233.413 8.91661C232.407 9.92332 231.975 11.0738 231.975 12.3682C231.975 13.6625 232.407 14.9569 233.413 15.8198C234.42 16.6827 235.57 17.2579 237.009 17.2579Z" fill="white"/>
<path d="M86.5772 21.141H76.6539L67.0183 44.5829C66.8744 44.8706 67.1621 44.2953 66.7306 45.1582C66.2992 46.0211 64.7172 47.6031 63.7105 48.0345C62.7038 48.6098 61.8409 48.8974 60.978 48.8974C60.2589 48.8974 59.6836 48.6098 59.2522 48.1783C58.8207 47.6031 58.8207 46.884 59.2522 45.8773C59.9713 44.0077 60.8342 42.1381 61.5532 40.2685C62.2723 38.6865 62.8476 37.1045 63.4229 35.6664C63.9981 34.0844 64.5734 32.9339 64.861 32.071C66.5868 28.1879 67.0183 25.1678 66.1554 23.2982C65.2925 21.4286 63.279 20.4219 59.8275 20.4219C59.1084 20.4219 58.5331 20.4219 57.9579 20.5657C57.3826 20.5657 56.8073 20.7095 56.3759 20.8533C55.8006 20.9971 55.3692 21.141 54.7939 21.141L53.0681 25.024H53.931C55.3692 25.024 56.2321 25.4554 56.5197 26.1745C56.8073 26.8936 56.8073 27.9003 56.2321 29.0508C55.9444 29.7699 55.513 30.7766 54.9377 32.2148C54.3625 33.6529 53.7872 35.2349 53.0681 36.8169C52.349 38.3989 51.7738 39.9808 51.1985 41.419C50.6232 42.8572 50.048 44.0077 49.7603 44.7268C49.0413 46.5964 48.6098 48.1783 48.466 49.6165C48.466 51.0547 48.6098 52.2052 49.1851 53.2119C49.7603 54.2186 50.4794 54.9377 51.4861 55.3691C52.4928 55.8006 53.7872 56.0882 55.2254 56.0882C56.9511 56.0882 58.8207 55.6568 60.6904 54.7939C62.56 53.931 64.2858 52.7805 65.7239 51.3423C66.0115 52.9243 66.7306 54.0748 67.8812 54.7939C69.0317 55.513 70.4698 55.9444 72.3394 55.9444C73.7776 55.9444 75.2158 55.6568 76.6539 55.0815C78.0921 54.5062 79.5302 53.7872 80.8246 52.9243C82.1189 52.0614 83.2695 50.9108 84.2762 49.7603C85.2829 48.6098 86.1458 47.1716 86.721 45.7335L85.1391 43.2886C84.42 44.8706 83.4133 46.1649 82.1189 47.0278C80.9684 47.8907 79.8179 48.466 78.8112 48.6098C77.8044 48.7536 76.9416 48.6098 76.3663 48.1783C75.791 47.7469 75.6472 46.884 76.2225 45.7335L86.5772 21.141Z" fill="#8F1625"/>
<path d="M133.749 55.513C135.043 55.0815 136.337 54.3624 137.632 53.6434C137.056 55.2253 136.337 56.8073 135.475 58.5331C134.612 60.1151 133.605 61.6971 132.598 62.9914C131.591 64.2857 130.441 65.2925 129.29 66.1554C128.14 67.0182 126.989 67.3059 125.839 67.3059C124.688 67.3059 123.682 66.8744 122.963 66.0115C122.243 65.1486 121.956 63.9981 122.243 62.4161C122.675 60.6904 123.25 59.2522 123.969 58.1017C124.688 56.9511 125.407 56.0882 126.27 55.513C126.846 55.6568 127.421 55.8006 127.996 55.9444C128.571 56.0882 129.29 56.0882 130.01 56.0882C131.304 56.0882 132.454 55.9444 133.749 55.513ZM131.735 49.4727C131.304 48.7536 131.16 47.8907 131.16 46.7402C131.16 45.5897 131.448 44.2953 132.023 42.7134C132.598 41.1314 133.173 39.5494 134.18 37.8236C135.331 35.5226 136.337 33.5091 137.344 31.9272C138.351 30.3452 139.358 29.0508 140.364 28.0441C141.371 27.0374 142.378 26.3183 143.384 25.8869C144.391 25.4555 145.398 25.1678 146.405 25.1678C147.411 25.1678 148.274 25.4555 148.849 26.1745L140.077 47.4593C139.07 48.3222 137.919 48.8974 136.913 49.4727C135.906 50.048 134.899 50.1918 134.036 50.1918C132.886 50.4794 132.167 50.1918 131.735 49.4727ZM160.786 21.4286H151.007L150.431 23.0106C149.281 21.4286 147.555 20.7095 145.398 20.7095C141.227 20.7095 137.344 22.1477 133.461 25.024C129.578 27.9003 126.414 32.3586 123.825 38.3989C122.531 41.5628 121.812 44.583 121.812 47.1717C121.812 49.7603 122.387 51.9176 123.682 53.4996C122.675 54.5063 121.668 55.6568 120.805 57.095C119.942 58.6769 119.367 60.4027 119.08 61.9847C118.792 63.7105 118.936 65.1486 119.367 66.5868C119.799 68.025 120.661 69.0317 121.668 70.0384C122.819 70.9013 124.257 71.3327 126.27 71.3327C130.872 71.3327 135.043 69.7508 138.782 66.7306C142.522 63.7105 145.542 59.2522 147.843 53.4996C149.568 49.0413 151.294 44.8706 153.02 40.8438C153.739 39.118 154.458 37.3922 155.177 35.5226C155.896 33.7968 156.04 33.2215 157.335 30.2014C158.054 28.4756 158.773 26.8936 159.348 25.4555C159.779 23.8735 160.355 22.4353 160.786 21.4286Z" fill="#8F1625"/>
<path d="M181.352 26.7497C181.496 29.0508 180.058 37.5359 171.572 38.1112C168.984 38.1112 168.84 37.3921 168.84 37.3921C169.559 35.6663 169.847 34.8034 170.709 33.3653C171.572 31.7833 172.435 30.3451 173.298 29.1946C174.161 27.9003 175.024 26.8936 175.743 26.0307C176.606 25.1678 177.181 24.5925 177.9 24.4487C178.763 24.0172 181.208 24.4487 181.352 26.7497ZM168.121 48.1783C166.826 46.4525 166.539 44.1515 167.258 41.5628C167.258 41.5628 175.743 43.72 182.215 38.255C184.516 36.0978 185.523 34.8034 186.529 32.79C187.392 30.7766 187.824 28.7632 187.68 27.0374C187.536 25.1678 186.817 23.7296 185.523 22.4353C184.228 21.1409 182.359 20.5657 179.914 20.5657C175.312 20.5657 171.141 22.0038 167.402 25.024C163.663 28.0441 160.642 32.3586 158.341 38.255C157.335 40.6999 156.903 43.0009 157.047 45.1582C157.047 47.3154 157.622 49.185 158.629 50.767C159.636 52.349 160.93 53.6433 162.656 54.5062C164.382 55.3691 166.539 55.9444 168.984 55.9444C173.873 55.9444 178.044 55.0815 181.64 53.2119C185.235 51.4861 187.824 48.8974 189.262 45.7334L187.68 43.2886C186.961 44.2953 186.242 45.302 185.235 46.1649C184.228 47.0278 183.078 47.8907 181.927 48.6098C180.633 49.3288 179.482 49.9041 178.044 50.1917C176.75 50.6232 175.455 50.767 174.161 50.767C171.572 50.767 169.559 49.9041 168.121 48.1783Z" fill="#8F1625"/>
<path d="M287.344 48.1783C286.769 47.7468 286.625 46.8839 287.2 45.7334L292.953 31.6395C294.391 27.9003 294.679 25.0239 293.528 23.1543C292.378 21.2847 290.364 20.278 287.488 20.278C285.762 20.278 284.036 20.7095 282.311 21.4285C280.585 22.1476 279.003 23.1543 277.565 24.4487C276.846 21.7162 274.688 20.278 271.093 20.278C269.367 20.278 267.785 20.5656 266.059 21.2847C264.334 22.0038 262.895 23.0105 261.457 24.161C260.882 21.5723 258.725 20.278 254.698 20.278C253.979 20.278 253.404 20.278 252.972 20.4218C252.397 20.4218 251.965 20.5656 251.39 20.7095C250.815 20.8533 250.383 20.9971 249.808 20.9971L248.082 24.8801H248.945C250.24 24.8801 251.103 25.3116 251.39 26.0306C251.678 26.7497 251.678 27.7564 251.246 28.907C250.959 29.626 250.384 30.7766 249.952 32.0709C249.377 33.3653 248.802 34.8034 248.226 36.3854C247.651 37.9674 246.932 39.4055 246.357 40.8437C245.925 41.8504 245.781 41.9942 245.35 43.4324C245.206 43.72 245.062 44.0076 245.062 44.2953C243.912 47.0278 243.337 49.185 243.48 50.9108C243.48 51.7737 243.624 52.4928 243.912 53.068C244.775 54.9376 246.932 55.8005 250.24 55.8005C251.534 55.8005 252.685 55.6567 253.547 55.5129C254.123 55.3691 254.554 55.2253 255.129 55.0815L256.999 51.1984H255.992C254.554 51.1984 253.691 50.9108 253.404 50.1917C253.116 49.4726 253.116 48.4659 253.691 47.1716C253.835 46.7401 254.267 45.7334 254.698 44.4391C255.273 43.1447 255.849 41.7066 256.424 40.1246C256.999 38.5426 257.718 36.9607 258.293 35.3787C259.012 33.7967 259.444 32.6462 259.875 31.6395C260.019 31.208 260.163 30.7766 260.307 30.4889C260.451 30.2013 260.594 29.7699 260.738 29.4822C261.601 28.7631 262.464 28.1879 263.471 27.7564C264.334 27.4688 265.197 27.325 265.772 27.325C266.491 27.4688 266.922 27.7564 267.21 28.1879C267.498 28.7631 267.498 29.3384 267.21 30.3451C266.347 32.3585 265.628 34.2282 264.909 35.9539C264.19 37.5359 263.615 39.1179 263.039 40.5561C262.464 42.138 262.033 43.2886 261.601 44.1514C259.875 48.0345 259.588 51.0546 260.451 52.9242C261.314 54.7938 263.471 55.8005 266.779 55.8005C268.073 55.8005 269.223 55.6567 270.086 55.5129C270.662 55.3691 271.093 55.2253 271.668 55.0815L273.394 51.1984H272.531C271.237 51.1984 270.374 50.9108 270.086 50.1917C269.799 49.4726 269.799 48.4659 270.23 47.1716L276.702 31.4956C276.846 31.0642 276.989 30.6328 277.133 30.3451C277.277 30.0575 277.421 29.626 277.565 29.3384C278.428 28.6193 279.291 28.0441 280.153 27.7564C281.016 27.4688 281.879 27.325 282.454 27.4688C283.174 27.6126 283.605 27.9003 283.893 28.3317C284.18 28.7631 284.18 29.4822 283.749 30.3451L277.996 44.2953C276.414 48.0345 276.27 50.9108 277.421 52.7804C278.571 54.65 280.585 55.6567 283.461 55.6567C284.899 55.6567 286.337 55.3691 287.776 54.7938C289.214 54.2186 290.652 53.4995 291.946 52.6366C293.241 51.7737 294.391 50.6232 295.398 49.4726C296.405 48.3221 297.267 46.884 297.843 45.4458L296.261 43.0009C295.542 44.5829 294.535 45.8772 293.241 46.7401C292.09 47.603 290.94 48.1783 289.933 48.3221C288.782 48.7536 287.919 48.6097 287.344 48.1783Z" fill="#8F1625"/>
<path d="M232.838 46.884C233.557 45.0144 234.851 42.1381 235.571 40.2685C236.29 38.6865 236.865 37.1045 237.44 35.6664C238.015 34.0844 238.591 32.9339 238.878 32.071C240.46 28.1879 240.892 25.1678 240.029 23.2982C239.166 21.4286 237.009 20.4219 233.701 20.4219C233.126 20.4219 232.55 20.4219 231.975 20.5657C231.4 20.5657 230.825 20.7095 230.393 20.8533C229.818 20.9971 229.386 21.141 228.811 21.141L226.942 25.024H227.804C229.243 25.024 230.106 25.4554 230.393 26.1745C230.681 26.8936 230.681 27.9003 230.249 29.0508C229.962 29.7699 229.53 30.7766 228.955 32.2148C228.38 33.6529 227.804 35.2349 227.085 36.8169C226.366 38.3989 225.791 39.9808 225.216 41.419C224.641 42.8572 224.065 44.0077 223.778 44.7268C222.196 48.466 222.052 51.3423 223.202 53.2119C224.353 55.0815 226.366 56.0882 229.243 56.0882C230.681 56.0882 232.119 55.8006 233.557 55.2253C234.995 54.6501 236.433 53.931 237.728 53.0681C238.734 52.349 240.029 51.1985 240.748 50.4794C241.036 50.1918 241.179 50.0479 241.467 49.7603L240.892 46.884C239.597 48.1783 238.303 49.0412 236.865 49.4727C236.002 49.7603 235.283 49.9041 234.564 49.9041C233.989 49.9041 233.413 49.7603 232.982 49.4727C232.407 48.8974 232.407 48.0345 232.838 46.884Z" fill="#8F1625"/>
<path d="M41.9942 13.6625C40.9875 16.5388 39.4056 19.1275 37.2483 21.1409C35.0911 23.2982 32.79 24.3049 30.0575 24.3049C28.0441 24.4487 27.0374 24.4487 25.8869 24.1611L34.6596 4.02685C35.0911 4.02685 35.3787 3.88303 35.8102 3.88303C36.2416 3.88303 36.5292 3.88303 36.9607 3.88303C37.8236 3.88303 38.6865 4.02685 39.5494 4.45829C40.4123 4.88974 40.9875 5.465 41.5628 6.3279C42.1381 7.1908 42.4257 8.19751 42.5695 9.34803C42.7133 10.6424 42.4257 12.0805 41.9942 13.6625ZM23.7296 29.6261C24.8802 29.4823 36.8169 26.4621 37.2483 34.0844C37.2483 53.7872 15.8198 50.3356 14.813 49.9041L23.7296 29.6261ZM53.7872 8.48514C53.3557 6.75935 52.6366 5.17737 51.3423 3.88303C50.0479 2.58869 48.466 1.58197 46.3087 1.00671C44.1515 0.287632 41.7066 0 38.9741 0C30.489 0 18.9837 1.58198 18.5523 1.72579L16.6826 5.60882H17.5455C18.9837 5.60882 19.8466 6.04027 20.1342 6.75935C20.4219 7.47843 20.4219 8.48514 19.9904 9.63567C19.7028 10.3547 19.2713 11.3615 18.6961 12.7996L15.3883 20.1342L0 55.5129H11.5053L11.9367 54.3624C29.0508 59.1083 41.2752 53.6433 46.3087 41.9942C47.0278 40.1246 47.4593 38.255 47.4593 36.5292C47.4593 34.8035 47.1716 33.2215 46.4525 31.7833C45.7335 30.3452 44.8706 29.1946 43.5762 28.1879C42.4257 27.1812 40.9875 26.6059 39.2617 26.3183C40.5561 25.8869 41.8504 25.3116 43.2886 24.4487C44.7267 23.5858 46.1649 22.7229 47.4593 21.7162C48.7536 20.7095 49.9041 19.559 50.9108 18.2646C51.9175 16.9703 52.6366 15.8197 53.0681 14.3816C53.931 12.3682 54.0748 10.2109 53.7872 8.48514Z" fill="#8F1625"/>
<path d="M122.1 28.4756C121.668 25.024 119.367 22.2915 116.922 22.0039C116.635 22.0039 116.203 21.86 115.916 21.86C115.484 21.86 114.909 21.86 114.334 22.0039C113.758 22.1477 113.327 22.2915 112.752 22.5791C111.601 23.1544 110.451 23.8735 109.3 24.7364C109.012 25.024 108.581 25.4554 108.293 25.7431L108.15 25.1678C107.862 23.5858 107.143 22.4353 105.992 21.5724C104.842 20.7095 103.404 20.4219 101.534 20.4219C100.096 20.4219 98.6577 20.7095 97.2195 21.2848C95.7814 21.86 94.3432 22.5791 93.0489 23.442C91.7545 24.3049 90.604 25.4554 89.5973 26.7498C88.5906 28.0441 87.7277 29.3385 87.1524 30.7766L88.7344 33.3653C89.4535 31.7833 90.4602 30.489 91.7545 29.4823C92.905 28.6194 94.0556 28.0441 95.0623 27.9003C96.069 27.7565 96.9319 27.9003 97.5072 28.3318C98.0824 28.7632 98.2262 29.6261 97.651 30.7766L87.44 55.9444H97.3633L106.136 34.0844C106.711 33.0777 107.862 30.6328 110.594 30.7766C111.026 30.7766 111.457 30.9204 111.889 31.3519C112.32 31.7833 112.608 32.9339 112.752 33.3653C113.471 35.0911 115.053 36.3854 117.21 36.3854C119.799 36.3854 121.956 34.372 122.1 31.9271C122.243 30.7766 122.243 29.6261 122.1 28.4756Z" fill="#8F1625"/>
<path d="M224.784 28.4756C224.353 25.024 222.052 22.2915 219.607 22.0039C219.319 22.0039 218.888 21.86 218.6 21.86C218.169 21.86 217.593 21.86 217.018 22.0039C216.443 22.1477 216.012 22.2915 215.436 22.5791C214.286 23.1544 213.135 23.8735 211.985 24.7364C211.697 25.024 211.266 25.4554 210.978 25.7431L210.834 25.1678C210.547 23.5858 209.827 22.4353 208.677 21.5724C207.526 20.7095 206.088 20.4219 204.219 20.4219C202.78 20.4219 201.342 20.7095 199.904 21.2848C198.466 21.86 197.028 22.5791 195.733 23.442C194.439 24.3049 193.289 25.4554 192.282 26.7498C191.275 28.0441 190.412 29.3385 189.837 30.7766L191.419 33.3653C192.138 31.7833 193.145 30.489 194.439 29.4823C195.59 28.6194 196.74 28.0441 197.747 27.9003C198.754 27.7565 199.617 27.9003 200.192 28.3318C200.767 28.7632 200.911 29.6261 200.336 30.7766L190.125 55.9444H200.048L208.821 34.0844C209.396 33.0777 210.547 30.6328 213.279 30.7766C213.71 30.7766 214.142 30.9204 214.573 31.3519C215.005 31.7833 215.292 32.9339 215.436 33.3653C216.155 35.0911 217.737 36.3854 219.895 36.3854C222.483 36.3854 224.64 34.372 224.784 31.9271C224.928 30.7766 224.928 29.6261 224.784 28.4756Z" fill="#8F1625"/>
<path d="M235.714 15.9635C237.009 15.9635 238.303 15.5321 239.166 14.5254C240.173 13.5187 240.604 12.3682 240.604 11.0738C240.604 9.77946 240.173 8.48512 239.166 7.62223C238.159 6.61551 237.009 6.18407 235.714 6.18407C234.276 6.18407 233.126 6.61551 232.119 7.62223C231.112 8.62894 230.681 9.77946 230.681 11.0738C230.681 12.3682 231.112 13.6625 232.119 14.5254C233.126 15.5321 234.276 15.9635 235.714 15.9635Z" fill="#8F1625"/>
<path d="M258.293 74.3528H259.3V70.1821H260.451L262.752 74.4966L263.615 74.0652L261.457 70.0383C262.752 69.6069 263.183 68.6002 263.183 67.4496C263.183 65.7238 261.889 65.0048 260.882 65.0048H258.15L258.293 74.3528ZM259.3 65.8677H260.594C261.601 65.8677 262.32 66.2991 262.32 67.4496C262.32 68.744 261.745 69.3192 260.882 69.3192H259.444L259.3 65.8677ZM249.808 74.3528H254.842V73.4899H250.959V69.7507H254.267V69.0316H250.959V65.8677H254.842V65.0048H249.808V74.3528ZM240.892 74.3528H241.898V69.7507H245.062V74.3528H246.069V65.0048H245.062V69.0316H241.898V65.1486H240.892V74.3528ZM234.708 74.3528H235.714V65.8677H237.872V65.0048H232.55V65.8677H234.708V74.3528ZM224.497 74.3528H229.53V73.4899H225.647V69.7507H228.955V69.0316H225.647V65.8677H229.53V65.0048H224.497V74.3528ZM221.045 69.6069H218.169V70.4698H220.038V73.3461C219.751 73.6337 219.175 73.7775 218.744 73.7775C217.737 73.7775 216.731 73.0584 216.731 69.8945C216.731 68.744 216.874 65.8677 218.6 65.8677C219.463 65.8677 219.895 66.4429 220.326 67.0182L221.189 66.4429C220.614 65.58 219.751 65.0048 218.6 65.0048C216.012 65.0048 215.58 68.0249 215.58 69.8945C215.58 71.7641 216.012 74.6404 218.6 74.6404C219.463 74.6404 220.326 74.3528 220.901 73.7775L221.045 69.6069ZM209.971 65.7238C211.841 65.7238 211.697 67.8811 211.697 69.6069C211.697 71.1888 211.697 73.4899 209.971 73.4899C208.533 73.4899 208.245 72.0517 208.245 69.6069C208.245 68.3125 208.102 65.7238 209.971 65.7238ZM209.971 64.8609C207.239 64.8609 207.095 68.1687 207.095 69.7507C207.095 70.9012 206.951 74.6404 209.971 74.6404C212.848 74.6404 212.848 71.045 212.848 69.7507C212.848 68.4563 212.848 64.8609 209.971 64.8609ZM201.055 74.3528H202.061V65.8677H204.219V65.0048H198.897V65.8677H201.055V74.3528ZM187.967 74.3528H193.001V73.4899H189.118V69.7507H192.426V69.0316H189.118V65.8677H193.001V65.0048H187.967V74.3528ZM181.64 69.0316L180.201 65.0048H178.907L178.619 74.3528H179.626L179.77 66.5867L181.496 71.3327L183.222 66.5867L183.365 74.3528H184.516L184.228 65.0048H182.934L181.64 69.0316ZM173.298 65.7238C175.168 65.7238 175.024 67.8811 175.024 69.6069C175.024 71.1888 175.024 73.4899 173.298 73.4899C171.86 73.4899 171.572 72.0517 171.572 69.6069C171.572 68.3125 171.429 65.7238 173.298 65.7238ZM173.298 64.8609C170.566 64.8609 170.422 68.1687 170.422 69.7507C170.422 70.9012 170.278 74.6404 173.298 74.6404C176.175 74.6404 176.175 71.045 176.175 69.7507C176.175 68.4563 176.175 64.8609 173.298 64.8609ZM166.97 72.4832C166.539 73.0585 165.964 73.6337 165.101 73.6337C163.231 73.6337 163.087 70.9012 163.087 69.7507C163.087 68.4563 163.231 65.8677 165.101 65.8677C165.82 65.8677 166.395 66.4429 166.683 67.0182L167.546 66.5867C166.97 65.7238 166.251 65.0048 165.101 65.0048C162.512 65.0048 162.081 68.0249 162.081 69.8945C162.081 71.7641 162.512 74.6404 165.101 74.6404C166.251 74.6404 167.114 73.9213 167.689 73.0584L166.97 72.4832Z" fill="black"/>
</svg>
