<svg width="50" height="50" viewBox="0 0 50 50" fill="none" xmlns="http://www.w3.org/2000/svg">
<path d="M25 0C11.1929 0 0 11.1929 0 25C0 38.8071 11.1929 50 25 50C38.8071 50 50 38.8071 50 25C50 11.1929 38.8072 0 25 0ZM36.8548 33.6809C36.5627 34.0088 36.2835 34.3494 35.9758 34.662C35.2347 35.4147 34.4699 36.1442 33.7346 36.9024C33.1981 37.4556 32.6428 37.9671 31.8827 38.1926C31.4838 38.1926 31.0847 38.1926 30.6858 38.1926C30.5838 38.1641 30.4836 38.1211 30.3797 38.1093C28.8184 37.9311 27.3745 37.3883 25.9896 36.6768C22.0605 34.658 18.9638 31.6788 16.3245 28.196C14.9267 26.3515 13.822 24.34 13.2452 22.0735C13.1289 21.6167 13.0248 21.1568 12.9152 20.6983C12.9152 20.2073 12.9152 19.7162 12.9152 19.2251C13.2039 18.75 13.4248 18.2121 13.7949 17.8122C14.7263 16.8059 15.7191 15.8559 16.7008 14.897C16.9476 14.6559 17.2448 14.4663 17.5189 14.2529C17.703 14.2529 17.8872 14.2529 18.0713 14.2529C18.3961 14.6271 18.7959 14.9594 19.0319 15.3831C19.8528 16.8558 20.6153 18.3611 21.4033 19.8521C21.8209 20.6423 21.7468 21.1947 21.1167 21.8473C20.7971 22.1783 20.4828 22.516 20.1433 22.8257C19.8338 23.108 19.8088 23.4165 19.9506 23.7815C20.401 24.9409 21.0752 25.9643 21.9027 26.8792C23.2011 28.3146 24.5503 29.6996 26.2598 30.6656C26.3265 30.7033 26.3917 30.7438 26.4588 30.7812C27.6608 31.452 27.8256 31.4278 28.7769 30.4496C29.0123 30.2076 29.2458 29.9636 29.4898 29.7306C30.0289 29.2157 30.7591 29.099 31.3964 29.4685C32.9884 30.3916 34.5766 31.322 36.1467 32.2814C36.4305 32.4548 36.621 32.7808 36.8546 33.0363C36.8548 33.2513 36.8548 33.4661 36.8548 33.6809Z" fill="#72B847"/>
</svg>
