<svg width="66" height="66" viewBox="0 0 66 66" fill="none" xmlns="http://www.w3.org/2000/svg">
<path d="M56 0H10C4.47715 0 0 4.47715 0 10V56C0 61.5229 4.47715 66 10 66H56C61.5229 66 66 61.5229 66 56V10C66 4.47715 61.5229 0 56 0Z" fill="#8F1625"/>
<path d="M46.4694 40.4081C42.006 40.4081 38.3878 44.0265 38.3878 48.4898C38.3878 52.9532 42.0061 56.5714 46.4694 56.5714C50.9328 56.5714 54.551 52.953 54.551 48.4898C54.551 44.0265 50.9327 40.4081 46.4694 40.4081ZM46.4694 55.3485C42.6815 55.3485 39.6109 52.2778 39.6109 48.4899C39.6109 44.702 42.6815 41.6314 46.4694 41.6314C50.2573 41.6314 53.3279 44.702 53.3279 48.4899C53.3278 52.2777 50.2571 55.3485 46.4694 55.3485Z" fill="white"/>
<path d="M59.4603 25.5919H7.21313C6.57694 25.5919 6.06122 26.0507 6.06122 26.6167V27.9344C6.06122 28.5004 6.57694 28.9592 7.21313 28.9592H59.4603C60.0965 28.9592 60.6122 28.5004 60.6122 27.9344V26.6167C60.6122 26.0507 60.0965 25.5919 59.4603 25.5919Z" fill="white"/>
<path d="M9.42859 30.9798L14.7888 55.2189C14.9636 56.0098 15.6526 56.5715 16.4477 56.5715H39.8506C37.7739 54.7342 36.4403 52.0497 36.3657 49.0444H34.1979V54.8151H32.3115V49.0444H24.1332L24.7249 54.8151H22.8385L22.2468 49.0444H15.3339L14.7187 47.0372H22.0409L21.3677 40.472H13.4475L12.7913 38.4648H21.1619L20.583 32.8196H22.4694L23.0483 38.4648H32.3115V32.8196H34.1979V38.4648H43.3908L43.917 32.8196H45.8034L45.2772 38.4648H53.6771L53.103 40.472H52.469C53.3171 41.1095 54.063 41.8791 54.6797 42.7504L57.2449 30.9796H9.42859V30.9798Z" fill="white"/>
<path d="M23.5987 47.1428H32.3265V40.4081H22.8979L23.5987 47.1428Z" fill="white"/>
<path d="M40.4081 40.4081H34.3469V47.1428H36.5736C37.0058 44.3896 38.4175 41.9989 40.4081 40.4081Z" fill="white"/>
<path d="M40.8053 23.5714H45.7959L40.8335 9.90063C40.6992 9.53051 40.2861 9.33789 39.9108 9.47048L36.8459 10.553C36.4707 10.6856 36.2754 11.093 36.4098 11.4631L40.8053 23.5714Z" fill="white"/>
<path d="M30.2638 11.4748C30.3985 11.101 30.2008 10.6901 29.8223 10.5571L26.7299 9.47036C26.3515 9.33733 25.9354 9.5326 25.8007 9.90639L20.8776 23.5714H25.9059L30.2638 11.4748Z" fill="white"/>
<path d="M50.5102 47.8678H47.0913V44.449H45.174V47.8678H41.7551V49.7851H45.174V53.2041H47.0913V49.7851H50.5102V47.8678Z" fill="white"/>
</svg>
